<!DOCTYPE svg PUBLIC "-//W3C//DTD SVG 1.1//EN" "http://www.w3.org/Graphics/SVG/1.1/DTD/svg11.dtd">
<!-- Uploaded to: SVG Repo, www.svgrepo.com, Transformed by: SVG Repo Mixer Tools -->
<svg height="800px" width="800px" version="1.1" id="Layer_1" xmlns="http://www.w3.org/2000/svg" xmlns:xlink="http://www.w3.org/1999/xlink" viewBox="0 0 503.467 503.467" xml:space="preserve" fill="#445D22D9">
<g id="SVGRepo_bgCarrier" stroke-width="0"/>
<g id="SVGRepo_tracerCarrier" stroke-linecap="round" stroke-linejoin="round"/>
<g id="SVGRepo_iconCarrier"> <g transform="translate(3 1)"> <path style="fill:#F2EDDA;" d="M137.374,284.37c0-42.667,51.2-17.067,51.2-17.067s17.067-34.133,59.733-34.133 s59.733,34.133,59.733,34.133s51.2-25.6,51.2,17.067l-1.707,11.093c6.827,0.853,13.653,2.56,19.627,4.267l-0.853,1.707 c0,0-8.533,93.867-68.267,128c0,0-17.067,8.533-34.133,8.533h-0.853c-2.56-13.653-3.413-28.16-1.707-42.667h4.267 c15.36,0-9.387-43.52-27.307-43.52c-17.067,0-40.107,43.52-25.6,43.52h2.56c1.707,14.507,0.853,29.013-1.707,42.667h-0.853 c-17.067,0-34.133-8.533-34.133-8.533c-59.733-34.133-68.267-128-68.267-128l-0.853-1.707c5.973-1.707,12.8-3.413,19.627-4.267 L137.374,284.37z"/> <g> <path style="fill:#445D22D9;" d="M225.267,395.303h-2.56c-13.653,0-23.893-8.533-23.893-8.533l-0.853-0.853 c-8.533-34.133,0-46.933,0-46.933c16.213,7.68,34.133,12.8,51.2,12.8s34.987-5.12,51.2-12.8c0,0,8.533,12.8,0,46.933h-0.853 c0,0-7.68,9.387-23.04,9.387H272.2c-1.707,14.507-0.853,29.013,1.707,42.667c3.413,18.773,9.387,38.4,17.92,59.733 c0,0-25.6-8.533-42.667-42.667c-17.067,34.133-42.667,42.667-42.667,42.667c8.533-21.333,14.507-40.107,17.92-59.733 C226.12,424.317,226.974,410.663,225.267,395.303"/> <path style="fill:#445D22D9;" d="M248.307,233.17c-42.667,0-59.733,34.133-59.733,34.133s-51.2-25.6-51.2,17.067l-34.133-8.533 c0,0-42.667-8.533-68.267-51.2c25.6,0,59.733-8.533,59.733-8.533s-51.2-25.6-76.8-76.8c25.6,8.533,68.267,17.067,68.267,17.067 s-34.133-51.2-17.067-102.4c17.067,34.133,51.2,42.667,51.2,42.667s42.667-59.733,102.4-59.733l25.6-34.133l25.6,34.133 c59.733,0,102.4,59.733,102.4,59.733s34.133-8.533,51.2-42.667c17.067,51.2-17.067,102.4-17.067,102.4s42.667-8.533,68.267-17.067 c-25.6,51.2-76.8,76.8-76.8,76.8s25.6,8.533,59.733,8.533c-25.6,42.667-68.267,51.2-68.267,51.2l-34.133,8.533 c0-42.667-51.2-17.067-51.2-17.067S290.974,233.17,248.307,233.17"/> </g> <path style="fill:#ECF4F7;" d="M197.107,339.837c0,0-8.533,12.8,0,46.933c-34.133-17.067-34.133-68.267-34.133-68.267 C172.36,326.183,184.307,333.863,197.107,339.837z M333.64,318.503c0,0,0,51.2-34.133,68.267c8.533-34.133,0-46.933,0-46.933 C312.307,333.863,324.254,326.183,333.64,318.503z"/> </g> <path style="fill:#51565F;" d="M293.974,502.97c-0.853,0-0.853,0-1.707,0c-0.853,0-23.893-8.533-40.96-37.547 c-17.067,29.867-40.107,37.547-40.96,37.547c-1.707,0.853-3.413,0-4.267-0.853c-0.853-0.853-1.707-2.56-0.853-4.267 c17.067-42.667,25.6-75.093,17.067-116.907c0-0.853,0-2.56,0.853-3.413c0.853-0.853,1.707-1.707,3.413-1.707h51.2 c0.853,0,2.56,0.853,3.413,1.707c0.853,0.853,0.853,2.56,0.853,3.413c-8.533,41.813,0,74.24,17.067,116.907 c0.853,1.707,0,3.413-0.853,4.267C296.534,502.117,294.827,502.97,293.974,502.97z M251.307,451.77c1.707,0,3.413,0.853,3.413,2.56 c9.387,19.627,22.187,29.867,30.72,35.84c-13.653-36.693-20.48-68.267-14.507-105.813h-40.96c6.827,37.547,0,69.973-14.507,105.813 c8.533-5.12,21.333-16.213,30.72-35.84C247.894,452.623,249.6,451.77,251.307,451.77z M311.04,434.703 c-1.707,0-2.56-0.853-3.413-2.56c-0.853-1.707-0.853-4.267,1.707-5.973c52.907-30.72,64.853-110.933,65.707-122.88 c-14.507-4.267-29.867-5.12-46.933-5.12c-2.56,0-4.267-1.707-4.267-4.267c0-2.56,1.707-4.267,4.267-4.267 c36.693,0,74.24,5.12,105.813,44.373c10.24,12.8,20.48,18.773,32.427,19.627c17.067,0.853,29.867-11.093,29.867-11.947 c1.707-1.707,4.267-1.707,5.973,0c1.707,1.707,1.707,4.267,0,5.973c-0.853,0.853-15.36,15.36-35.84,14.507 c-13.653-0.853-27.307-8.533-38.4-23.04c-13.653-17.067-28.16-27.307-44.373-33.28c-2.56,17.92-14.507,96.427-69.973,128 C312.747,434.703,311.894,434.703,311.04,434.703z M191.574,434.703c-0.853,0-1.707,0-1.707-0.853 c-55.467-31.573-67.413-110.08-69.973-128c-16.213,5.973-30.72,16.213-44.373,33.28c-11.947,14.507-24.747,22.187-38.4,23.04 c-20.48,0.853-35.84-13.653-35.84-14.507c-1.707-1.707-1.707-4.267,0-5.973c1.707-1.707,4.267-1.707,5.973,0 c0,0,12.8,12.8,29.867,11.947c11.093-0.853,22.187-7.68,32.427-19.627c30.72-39.253,69.12-44.373,105.813-44.373 c2.56,0,4.267,1.707,4.267,4.267s-1.707,4.267-4.267,4.267c-17.067,0-32.427,0.853-46.933,5.12 c1.707,11.947,12.8,93.013,65.707,122.88c1.707,0.853,2.56,3.413,1.707,5.973C194.134,433.85,193.28,434.703,191.574,434.703z M302.507,392.037c-0.853,0-1.707,0-2.56-0.853c-1.707-0.853-1.707-2.56-1.707-4.267c5.12-22.187,3.413-34.133,1.707-40.107 c-16.213,6.827-33.28,11.093-48.64,11.093s-32.427-4.267-48.64-11.093c-1.707,5.12-3.413,17.92,1.707,40.107 c0,1.707,0,3.413-1.707,4.267c-1.707,0.853-3.413,0.853-4.267,0.853c-35.84-17.92-36.693-69.12-36.693-71.68 c0-0.853,0-1.707,0.853-2.56l0,0l0,0l0,0c0.853-0.853,1.707-0.853,2.56-0.853l0,0l0,0h0.853l0,0l0,0c0.853,0,1.707,0,2.56,0.853 l34.133,21.333l0,0c16.213,7.68,33.28,11.947,48.64,11.947c15.36,0,32.427-4.267,48.64-11.947l0,0l34.133-21.333 c0.853-0.853,1.707-0.853,2.56-0.853l0,0l0,0l0,0l0,0l0,0l0,0l0,0c0.853,0,1.707,0.853,2.56,1.707l0,0l0,0l0,0l0,0l0,0 c0.853,0.853,0.853,1.707,0.853,2.56c0,2.56-0.853,53.76-36.693,71.68C304.214,392.037,303.36,392.037,302.507,392.037z M308.48,343.397c1.707,5.973,4.267,17.067,0.853,35.84c16.213-13.653,21.333-36.693,23.04-49.493 C323.84,334.01,316.16,339.13,308.48,343.397z M171.094,328.89c1.707,12.8,6.827,36.693,23.04,49.493 c-3.413-18.773-0.853-29.867,0.853-35.84C186.454,339.13,178.774,334.01,171.094,328.89z M362.24,289.637 c-2.56,0-4.267-1.707-4.267-4.267c0-8.533-2.56-14.507-6.827-17.92c-10.24-6.827-30.72,0.853-37.547,4.267 c-1.707,0.853-4.267,0-5.973-1.707c-0.853-1.707-16.213-31.573-56.32-31.573c-39.253,0-55.467,31.573-56.32,31.573 c-0.853,1.707-3.413,2.56-5.973,1.707c-6.827-3.413-27.307-11.093-37.547-4.267c-5.12,2.56-6.827,9.387-6.827,17.92 c0,2.56-1.707,4.267-4.267,4.267c-2.56,0-4.267-1.707-4.267-4.267c0-11.947,3.413-20.48,11.093-24.747 c13.653-8.533,34.133-0.853,42.667,2.56c5.973-9.387,24.747-33.28,61.44-33.28s55.467,23.893,61.44,33.28 c8.533-3.413,29.013-11.093,42.667-2.56c7.68,4.267,11.093,12.8,11.093,24.747C366.507,287.93,364.8,289.637,362.24,289.637z M276.907,289.637c-2.56,0-4.267-1.707-4.267-4.267v-8.533c0-2.56,1.707-4.267,4.267-4.267s4.267,1.707,4.267,4.267v8.533 C281.174,287.93,279.467,289.637,276.907,289.637z M225.707,289.637c-2.56,0-4.267-1.707-4.267-4.267v-8.533 c0-2.56,1.707-4.267,4.267-4.267s4.267,1.707,4.267,4.267v8.533C229.974,287.93,228.267,289.637,225.707,289.637z M396.374,281.103 c-1.707,0-3.413-1.707-4.267-3.413c-0.853-2.56,0.853-4.267,3.413-5.12c0,0,36.693-7.68,61.44-42.667 c-30.72-0.853-52.053-8.533-52.907-8.533c-1.707-0.853-2.56-1.707-2.56-3.413c0-1.707,0.853-3.413,2.56-4.267 c0.853,0,44.373-22.187,69.973-65.707c-24.747,7.68-57.173,13.653-58.88,13.653c-1.707,0-3.413,0-4.267-1.707 c-0.853-1.707-0.853-3.413,0-5.12c0-0.853,29.013-43.52,18.773-88.747c-18.773,28.16-47.787,35.84-48.64,35.84 c-1.707,0-3.413,0-4.267-1.707c0-0.853-41.813-58.027-98.987-58.027c-1.707,0-2.56-0.853-3.413-1.707L252.16,10.597l-22.187,29.867 c-0.853,0.853-1.707,1.707-3.413,1.707c-57.173,0-98.133,57.173-98.987,58.027c-0.853,1.707-2.56,1.707-4.267,1.707 s-29.867-7.68-48.64-35.84C65.28,111.29,93.44,154.81,93.44,154.81c0.853,1.707,0.853,3.413,0,5.12 c-0.853,1.707-2.56,2.56-4.267,1.707c-1.707,0-33.28-6.827-58.88-13.653c25.6,43.52,69.12,65.707,69.973,65.707 c1.707,0.853,2.56,2.56,2.56,4.267c0,1.707-1.707,3.413-3.413,3.413c-0.853,0-29.013,6.827-52.907,8.533 c24.747,34.987,61.44,42.667,61.44,42.667c2.56,0.853,3.413,2.56,3.413,5.12c-0.853,2.56-2.56,3.413-5.12,3.413 c-1.707,0-45.227-9.387-70.827-52.907c-0.853-1.707-0.853-2.56,0-4.267s2.56-2.56,3.413-2.56c16.213,0,35.84-3.413,47.787-5.973 c-16.213-10.24-49.493-34.133-69.12-73.387c-0.853-1.707-0.853-3.413,0.853-5.12c0.853-1.707,2.56-1.707,4.267-0.853 c17.92,5.973,44.373,11.947,58.027,15.36c-9.387-17.067-26.453-57.173-12.8-97.28c0.853-1.707,1.707-2.56,3.413-2.56 c1.707,0,3.413,0.853,4.267,2.56C89.174,80.57,113.067,90.81,121.6,93.37c8.533-11.093,47.787-58.027,101.547-58.88l24.747-32.427 c1.707-2.56,5.12-2.56,6.827,0l24.747,32.427c53.76,0.853,93.013,47.787,101.547,58.88c7.68-2.56,32.427-12.8,46.08-39.253 c0.853-1.707,2.56-2.56,4.267-2.56s3.413,0.853,3.413,2.56c13.653,40.96-3.413,80.213-12.8,97.28 c13.653-3.413,40.96-9.387,58.027-15.36c1.707-0.853,3.413,0,4.267,0.853c0.853,1.707,1.707,3.413,0.853,5.12 c-19.627,39.253-52.907,63.147-69.12,73.387c10.24,2.56,28.16,5.973,48.64,5.973c1.707,0,2.56,0.853,3.413,2.56 c0.853,1.707,0.853,2.56,0,4.267C442.454,271.717,398.934,280.25,396.374,281.103C397.227,281.103,396.374,281.103,396.374,281.103z M251.307,212.837c-1.707,0-3.413-0.853-4.267-2.56c-24.747-73.387-87.893-81.92-90.453-82.773c-2.56,0-4.267-2.56-3.413-5.12 c0-2.56,2.56-4.267,5.12-3.413c0.853,0,64.853,8.533,93.013,77.653c29.013-68.267,93.013-77.653,93.013-77.653 c2.56,0,4.267,1.707,5.12,3.413c0,2.56-1.707,4.267-3.413,5.12c-2.56,0-65.707,9.387-90.453,82.773 C254.72,211.983,253.014,212.837,251.307,212.837z M323.84,204.303c-5.12,0-8.533-3.413-8.533-8.533c0-5.12,3.413-8.533,8.533-8.533 s8.533,3.413,8.533,8.533C332.374,200.89,328.96,204.303,323.84,204.303z M178.774,204.303c-5.12,0-8.533-3.413-8.533-8.533 c0-5.12,3.413-8.533,8.533-8.533s8.533,3.413,8.533,8.533C187.307,200.89,183.894,204.303,178.774,204.303z M268.374,136.037 c-1.707,0-2.56-0.853-3.413-1.707l-13.653-20.48l-13.653,20.48c-1.707,1.707-4.267,2.56-5.973,0.853 c-1.707-1.707-2.56-4.267-0.853-5.973l17.067-25.6c1.707-2.56,5.12-2.56,6.827,0l17.067,25.6c1.707,1.707,0.853,4.267-0.853,5.973 C270.08,136.037,269.227,136.037,268.374,136.037z M268.374,84.837c-1.707,0-2.56-0.853-3.413-1.707l-13.653-20.48l-13.653,20.48 c-1.707,1.707-4.267,2.56-5.973,0.853c-1.707-1.707-2.56-4.267-0.853-5.973l17.067-25.6c1.707-2.56,5.12-2.56,6.827,0l17.067,25.6 c1.707,1.707,0.853,4.267-0.853,5.973C270.08,84.837,269.227,84.837,268.374,84.837z"/> </g>
</svg>